<?xml version="1.0" standalone="no"?>
<!DOCTYPE svg PUBLIC "-//W3C//DTD SVG 20010904//EN"
 "http://www.w3.org/TR/2001/REC-SVG-20010904/DTD/svg10.dtd">
<svg version="1.0" xmlns="http://www.w3.org/2000/svg"
 width="1408.000000pt" height="1408.000000pt" viewBox="0 0 1408.000000 1408.000000"
 preserveAspectRatio="xMidYMid meet">
<metadata>
Created by potrace 1.14, written by Peter Selinger 2001-2017
</metadata>
<g transform="translate(0.000000,1408.000000) scale(0.100000,-0.100000)"
fill="#000000" stroke="none">
<path d="M2563 13513 c3 -313 8 -590 11 -618 2 -27 7 -93 11 -145 3 -52 8
-113 10 -135 2 -22 6 -69 9 -105 8 -81 15 -145 21 -190 3 -19 7 -51 9 -70 3
-19 7 -52 10 -72 10 -62 17 -112 21 -138 4 -27 9 -56 31 -175 23 -125 25 -135
50 -244 8 -36 17 -75 19 -86 10 -52 77 -298 106 -390 7 -22 13 -42 14 -45 2
-12 47 -147 55 -165 4 -11 18 -47 30 -80 12 -33 28 -73 35 -90 7 -16 21 -52
31 -80 10 -27 24 -59 31 -71 7 -11 10 -24 6 -27 -3 -4 -1 -7 5 -7 7 0 12 -9
12 -20 0 -11 4 -20 8 -20 5 0 9 -6 9 -12 0 -22 213 -441 232 -458 3 -3 12 -15
19 -27 28 -52 41 -73 126 -202 95 -146 186 -274 198 -279 5 -2 8 -9 8 -15 1
-7 14 -28 30 -47 17 -19 30 -39 30 -45 0 -5 9 -16 20 -23 11 -7 20 -17 20 -23
0 -5 5 -15 10 -22 30 -36 54 -65 73 -91 12 -16 30 -37 40 -47 9 -11 17 -21 17
-24 0 -6 128 -165 140 -175 3 -3 13 -14 21 -26 8 -11 32 -42 54 -68 22 -27 56
-67 75 -90 19 -23 53 -64 75 -90 22 -27 54 -63 70 -81 17 -17 57 -63 90 -100
116 -133 260 -287 406 -437 63 -66 122 -127 131 -136 29 -33 365 -358 472
-457 59 -55 127 -118 151 -140 24 -22 73 -67 110 -100 36 -32 77 -68 89 -80
12 -11 53 -47 91 -80 38 -33 85 -74 105 -92 l35 -32 -30 -28 c-16 -16 -63 -58
-104 -93 -41 -36 -82 -72 -91 -80 -9 -8 -51 -46 -94 -85 -44 -38 -98 -88 -121
-110 -24 -22 -78 -71 -121 -110 -109 -98 -700 -688 -816 -815 -165 -180 -265
-292 -297 -330 -12 -14 -32 -36 -44 -50 -13 -14 -46 -52 -73 -85 -50 -60 -70
-84 -112 -133 -12 -15 -42 -51 -65 -81 -23 -30 -57 -71 -74 -90 -18 -20 -33
-39 -33 -43 0 -4 -10 -18 -22 -32 -13 -14 -34 -39 -48 -57 -14 -18 -31 -38
-37 -45 -7 -7 -13 -15 -13 -19 0 -4 -6 -12 -12 -19 -7 -8 -20 -24 -28 -36 -8
-13 -34 -47 -58 -76 -24 -30 -40 -54 -37 -54 4 0 -1 -7 -10 -16 -20 -20 -168
-230 -222 -315 -12 -19 -27 -39 -32 -46 -6 -7 -11 -17 -11 -23 0 -5 -4 -10
-10 -10 -5 0 -10 -4 -10 -9 0 -5 -22 -46 -50 -90 -27 -44 -50 -85 -50 -91 0
-5 -4 -10 -10 -10 -5 0 -10 -9 -10 -20 0 -10 -6 -23 -13 -27 -14 -9 -204 -389
-211 -423 -2 -7 -65 -160 -82 -197 -8 -17 -14 -33 -14 -36 0 -3 -5 -18 -12
-34 -6 -15 -12 -32 -14 -38 -1 -5 -20 -64 -43 -130 -35 -105 -84 -265 -97
-317 -2 -10 -6 -26 -9 -35 -15 -56 -65 -257 -70 -285 -10 -57 -20 -104 -30
-148 -3 -14 -8 -41 -11 -60 -2 -19 -10 -60 -16 -90 -6 -30 -12 -66 -13 -80 -3
-25 -12 -80 -21 -130 -2 -14 -6 -47 -9 -75 -6 -54 -11 -94 -21 -165 -10 -74
-20 -192 -40 -490 -3 -36 -7 -316 -11 -622 l-5 -558 642 0 642 0 -4 25 c-3 14
-2 25 3 25 4 0 4 14 -1 30 -5 17 -5 30 0 30 5 0 5 13 0 30 -5 17 -5 30 0 30 5
0 5 13 0 30 -5 17 -5 30 0 30 5 0 5 13 0 30 -5 17 -5 30 0 30 5 0 5 13 0 30
-5 17 -5 30 0 30 5 0 5 13 0 30 -5 17 -5 30 0 30 5 0 5 13 0 30 -5 17 -5 30 0
30 5 0 5 13 0 30 -5 17 -5 30 0 30 5 0 5 13 0 30 -5 17 -6 30 -2 30 9 0 7 103
-2 118 -3 6 -2 13 2 16 10 6 8 48 -3 65 -3 6 -3 11 2 11 4 0 9 35 9 78 1 77
11 262 15 272 2 6 6 56 8 99 1 28 4 33 21 28 11 -3 22 -1 25 4 3 4 16 4 30 -1
15 -6 27 -6 30 0 3 6 15 6 30 0 15 -6 27 -6 30 0 3 6 15 6 30 0 15 -6 27 -6
30 0 3 6 15 6 30 0 15 -6 27 -6 30 0 3 6 15 6 30 0 15 -6 27 -6 30 0 3 6 15 6
30 0 15 -6 27 -6 30 0 3 6 15 6 30 0 15 -6 27 -6 30 0 3 6 15 6 30 0 15 -6 27
-6 30 0 3 6 15 6 30 0 15 -6 27 -6 30 0 3 6 15 6 30 0 15 -6 27 -6 30 0 3 6
15 6 30 0 15 -6 27 -6 30 0 3 6 15 6 30 0 15 -6 27 -6 30 0 3 6 15 6 30 0 15
-6 27 -6 30 0 3 6 15 6 30 0 15 -6 27 -6 30 0 3 6 15 6 30 0 15 -6 27 -6 30 0
3 6 15 6 30 0 15 -6 27 -6 30 0 3 6 15 6 30 0 15 -6 27 -6 30 0 3 6 15 6 30 0
15 -6 27 -6 30 0 3 6 15 6 30 0 15 -6 27 -6 30 0 3 6 15 6 30 0 15 -6 27 -6
30 0 3 6 15 6 30 0 15 -6 27 -6 30 0 3 6 15 6 30 0 15 -6 27 -6 30 0 3 6 15 6
30 0 15 -6 27 -6 30 0 3 6 15 6 30 0 15 -6 27 -6 30 0 3 6 15 6 30 0 15 -6 27
-6 30 0 3 6 15 6 30 0 15 -6 27 -6 30 0 3 6 15 6 30 0 15 -6 27 -6 30 0 3 6
15 6 30 0 15 -6 27 -6 30 0 3 6 15 6 30 0 15 -6 27 -6 30 0 3 6 15 6 30 0 15
-6 27 -6 30 0 3 6 15 6 30 0 15 -6 27 -6 30 0 3 6 15 6 30 0 15 -6 27 -6 30 0
3 6 15 6 30 0 15 -6 27 -6 30 0 3 6 15 6 30 0 15 -6 27 -6 30 0 3 6 15 6 30 0
15 -6 27 -6 30 0 3 6 15 6 30 0 15 -6 27 -6 30 0 3 6 15 6 30 0 15 -6 27 -6
30 0 3 6 15 6 30 0 15 -6 27 -6 30 0 3 6 15 6 30 0 15 -6 27 -6 30 0 3 6 15 6
30 0 15 -6 27 -6 30 0 3 6 15 6 30 0 15 -6 27 -6 30 0 3 6 15 6 30 0 15 -6 27
-6 30 0 3 6 15 6 30 0 15 -6 27 -6 30 0 3 6 15 6 30 0 15 -6 27 -6 30 0 3 6
15 6 30 0 15 -6 27 -6 30 0 3 6 15 6 30 0 15 -6 27 -6 30 0 3 6 15 6 30 0 15
-6 27 -6 30 0 3 6 15 6 30 0 15 -6 27 -6 30 0 3 6 15 6 30 0 15 -6 27 -6 30 0
3 6 15 6 30 0 15 -6 27 -6 30 0 3 6 15 6 30 0 15 -6 27 -6 30 0 3 6 15 6 30 0
15 -6 27 -6 30 0 3 6 15 6 30 0 15 -6 27 -6 30 0 3 6 15 6 30 0 15 -6 27 -6
30 0 3 6 15 6 30 0 15 -6 27 -6 30 0 3 6 15 6 30 0 15 -6 27 -6 30 0 3 6 15 6
30 0 15 -6 27 -6 30 0 3 6 15 6 30 0 15 -6 27 -6 30 0 3 6 15 6 30 0 15 -6 27
-6 30 0 3 5 15 6 28 1 12 -5 32 -5 44 0 13 5 25 4 28 -1 3 -6 15 -6 29 0 13 5
27 6 30 3 7 -7 105 -7 112 0 3 3 17 2 30 -3 14 -6 26 -6 29 1 4 5 13 6 22 0 9
-5 29 -5 45 -1 15 5 30 5 33 0 3 -5 16 -5 30 0 15 6 27 6 30 0 3 -5 15 -6 28
-1 12 5 32 5 44 0 13 -5 25 -4 28 1 3 6 15 6 30 0 15 -6 27 -6 30 1 4 5 13 6
22 0 9 -5 29 -5 45 -1 15 5 30 5 33 0 3 -5 16 -5 30 0 15 6 27 6 30 0 3 -5 15
-6 28 -1 12 5 32 5 44 0 13 -5 25 -4 28 1 3 6 15 6 30 0 15 -6 27 -6 30 1 4 5
13 6 22 0 9 -5 29 -5 45 -1 15 5 30 5 33 0 3 -5 16 -5 30 0 15 6 27 6 30 0 3
-5 15 -6 28 -1 12 5 32 5 44 0 13 -5 25 -4 28 1 3 6 15 6 30 0 15 -6 27 -6 30
1 4 5 13 6 22 0 9 -5 29 -5 45 -1 15 5 30 5 33 0 3 -5 16 -5 30 0 15 6 27 6
30 0 3 -5 15 -6 28 -1 12 5 32 5 44 0 13 -5 25 -4 28 1 3 6 15 6 30 0 15 -6
27 -6 30 1 4 5 13 6 22 0 9 -5 29 -5 45 -1 15 5 30 5 33 0 3 -5 16 -5 30 0 15
6 27 6 30 0 3 -5 15 -6 28 -1 12 5 32 5 44 0 13 -5 25 -4 28 1 3 6 15 6 30 0
15 -6 27 -6 30 1 4 5 13 6 22 0 9 -5 29 -5 45 -1 15 5 30 5 33 0 3 -5 16 -5
30 0 15 6 27 6 30 0 3 -5 15 -6 28 -1 12 5 32 5 44 0 13 -5 25 -4 28 1 3 6 15
6 30 0 15 -6 27 -6 30 1 4 5 13 6 22 0 9 -5 29 -5 45 -1 15 5 30 5 33 0 3 -5
16 -5 30 0 15 6 27 6 30 0 3 -6 15 -6 29 0 13 5 26 6 29 4 7 -8 176 -9 183 -1
4 3 14 2 23 -3 10 -5 23 -5 30 -1 26 16 51 0 52 -33 2 -43 6 -91 9 -91 3 0 10
-150 14 -276 1 -69 6 -130 9 -136 4 -6 4 -13 0 -17 -9 -9 -9 -66 0 -66 5 0 5
-5 2 -10 -9 -14 -10 -118 -2 -126 3 -4 2 -14 -3 -23 -5 -10 -5 -23 0 -31 5 -8
5 -21 0 -30 -5 -9 -5 -22 0 -30 5 -8 5 -21 0 -30 -5 -9 -5 -22 0 -30 4 -7 4
-24 0 -36 -6 -14 -5 -26 0 -29 6 -3 6 -15 0 -30 -6 -15 -6 -27 0 -30 6 -3 6
-15 0 -30 -6 -15 -6 -27 0 -30 6 -3 6 -15 0 -30 -5 -14 -5 -27 0 -30 5 -3 5
-18 0 -35 -5 -17 -5 -30 0 -30 4 0 6 -9 3 -20 -5 -20 0 -20 637 -20 l642 0 -6
563 c-3 309 -8 594 -10 632 -13 182 -17 234 -21 280 -3 28 -7 76 -9 108 -3 32
-7 72 -10 90 -2 18 -7 55 -11 82 -3 28 -9 66 -11 85 -3 19 -8 53 -10 75 -8 65
-11 89 -17 115 -4 14 -8 43 -11 65 -3 22 -7 47 -10 55 -3 8 -7 31 -10 50 -4
33 -8 49 -22 118 -3 15 -7 38 -9 52 -4 25 -8 42 -44 185 -11 44 -23 91 -25
105 -2 14 -5 25 -6 25 -2 0 -10 34 -15 60 -2 11 -4 21 -5 23 -2 1 -4 7 -5 12
-1 6 -4 12 -5 15 -1 3 -3 8 -4 13 -31 116 -125 400 -166 497 -5 11 -34 80 -65
154 -77 183 -204 440 -259 521 -17 25 -30 47 -30 50 1 15 -199 319 -310 472
-39 53 -78 106 -86 119 -8 12 -27 37 -42 54 -16 18 -28 37 -28 43 0 5 -7 12
-15 16 -8 3 -15 10 -15 15 0 5 -9 20 -20 33 -11 12 -52 64 -91 113 -39 50 -85
108 -102 129 -35 43 -173 210 -237 285 -32 39 -126 146 -150 171 -14 15 -45
49 -69 76 -24 27 -76 85 -115 128 -99 111 -698 711 -830 831 -59 55 -127 118
-151 140 -39 36 -162 147 -205 185 -9 8 -48 42 -86 75 -37 33 -84 74 -104 92
l-35 32 30 28 c17 16 63 57 104 93 41 36 82 72 91 80 9 8 54 49 100 90 46 41
95 86 109 99 14 13 66 60 116 105 121 110 728 717 840 839 50 55 104 114 120
131 37 41 126 141 160 181 14 17 25 34 25 38 0 5 5 5 10 2 6 -3 10 -3 10 2 0
4 10 20 23 34 12 15 40 48 62 75 22 26 50 59 62 73 68 80 191 233 227 281 22
30 43 57 46 60 3 3 28 34 55 70 27 36 53 67 57 68 4 2 8 10 8 17 0 7 4 15 8
17 4 2 30 35 57 73 27 39 52 72 56 75 11 8 277 405 307 458 129 231 224 412
226 432 1 3 13 30 28 60 23 50 45 98 67 155 5 11 13 31 19 45 32 75 75 194 75
206 0 8 3 14 7 14 4 0 7 6 7 13 1 6 15 55 33 107 34 101 88 279 96 318 2 13
18 78 35 145 17 67 32 131 34 142 12 60 16 82 21 105 2 14 11 57 19 95 7 39
17 90 20 115 4 25 9 56 11 70 3 14 7 43 9 65 3 22 8 47 11 55 3 8 7 42 10 75
2 33 7 74 9 90 10 54 20 150 30 280 2 28 7 86 10 130 4 44 9 103 11 130 2 28
7 310 10 628 l7 577 -643 0 c-354 0 -640 -3 -637 -6 3 -4 2 -15 -3 -25 -7 -11
-7 -20 0 -24 6 -3 6 -15 0 -30 -5 -14 -5 -27 0 -30 5 -3 5 -18 0 -33 -4 -16
-4 -36 1 -45 6 -9 5 -18 0 -21 -6 -4 -6 -18 -1 -36 5 -17 5 -30 0 -30 -5 0 -5
-13 0 -28 4 -16 4 -36 -1 -45 -6 -9 -5 -18 0 -22 7 -3 7 -15 1 -30 -5 -14 -5
-27 0 -30 5 -3 5 -18 0 -33 -4 -16 -4 -36 1 -45 6 -9 5 -18 0 -21 -6 -4 -6
-18 -1 -36 5 -17 5 -30 1 -30 -5 0 -5 -18 -1 -40 4 -22 4 -40 1 -40 -9 0 -6
-54 4 -69 3 -6 3 -11 -2 -11 -4 0 -9 -46 -9 -103 -2 -100 -11 -262 -20 -342
-3 -22 -5 -47 -5 -57 0 -17 -36 -32 -44 -17 -3 4 -16 4 -30 -1 -15 -6 -27 -6
-30 0 -3 6 -15 6 -30 0 -15 -6 -25 -6 -25 0 0 5 -12 5 -29 0 -15 -4 -34 -4
-42 0 -7 5 -21 4 -30 -1 -11 -6 -20 -5 -24 1 -3 6 -15 6 -30 0 -15 -6 -27 -6
-30 0 -3 6 -15 6 -30 0 -15 -6 -25 -6 -25 0 0 5 -12 5 -28 1 -15 -5 -37 -5
-49 0 -13 5 -25 4 -28 -1 -3 -6 -15 -6 -30 0 -15 6 -27 6 -30 0 -3 -6 -15 -6
-30 0 -15 6 -27 6 -30 0 -3 -6 -15 -6 -30 0 -15 6 -27 6 -30 0 -3 -6 -15 -6
-30 0 -15 6 -27 6 -30 0 -3 -6 -15 -6 -30 0 -15 6 -27 6 -30 0 -3 -6 -15 -6
-30 0 -15 6 -27 6 -30 0 -3 -6 -15 -6 -30 0 -15 6 -27 6 -30 0 -3 -6 -15 -6
-30 0 -15 6 -27 6 -30 0 -3 -6 -15 -6 -30 0 -15 6 -27 6 -30 0 -3 -6 -15 -6
-30 0 -15 6 -27 6 -30 0 -3 -6 -15 -6 -30 0 -15 6 -27 6 -30 -1 -4 -5 -11 -7
-16 -3 -13 8 -107 9 -115 1 -3 -3 -17 -2 -30 3 -14 6 -26 6 -29 -1 -4 -5 -13
-6 -22 0 -9 5 -29 5 -45 1 -15 -5 -30 -5 -33 0 -3 5 -16 5 -30 0 -15 -6 -27
-6 -30 0 -3 5 -15 6 -28 1 -12 -5 -32 -5 -44 0 -13 5 -25 4 -28 -1 -3 -6 -15
-6 -30 0 -15 6 -27 6 -30 -1 -4 -5 -13 -6 -22 0 -9 5 -29 5 -45 1 -15 -5 -30
-5 -33 0 -3 5 -16 5 -30 0 -15 -6 -27 -6 -30 0 -3 5 -15 6 -28 1 -12 -5 -32
-5 -44 0 -13 5 -25 4 -28 -1 -3 -6 -15 -6 -30 0 -15 6 -27 6 -30 -1 -4 -5 -13
-6 -22 0 -9 5 -29 5 -45 1 -15 -5 -30 -5 -33 0 -3 5 -16 5 -30 0 -15 -6 -27
-6 -30 0 -3 5 -15 6 -28 1 -12 -5 -32 -5 -44 0 -13 5 -25 4 -28 -1 -3 -6 -15
-6 -30 0 -15 6 -27 6 -30 -1 -4 -5 -13 -6 -22 0 -9 5 -29 5 -45 1 -15 -5 -30
-5 -33 0 -3 5 -16 5 -30 0 -15 -6 -27 -6 -30 1 -4 5 -11 7 -16 4 -14 -9 -90
-12 -95 -3 -3 4 -16 3 -29 -2 -15 -6 -27 -6 -30 0 -3 6 -15 6 -30 0 -15 -6
-27 -6 -30 0 -3 6 -15 6 -30 0 -15 -6 -27 -6 -30 0 -3 6 -15 6 -30 0 -15 -6
-27 -6 -30 0 -3 6 -15 6 -30 0 -15 -6 -27 -6 -30 0 -3 6 -15 6 -30 0 -15 -6
-27 -6 -30 0 -3 6 -15 6 -30 0 -15 -6 -27 -6 -30 0 -3 6 -15 6 -30 0 -15 -6
-27 -6 -30 0 -3 6 -15 6 -30 0 -15 -6 -27 -6 -30 0 -3 6 -15 6 -30 0 -15 -6
-27 -6 -30 0 -3 6 -15 6 -30 0 -15 -6 -27 -6 -30 0 -3 6 -15 6 -30 0 -15 -6
-27 -6 -30 0 -3 6 -15 6 -30 0 -15 -6 -27 -6 -30 0 -3 6 -15 6 -30 0 -15 -6
-27 -6 -30 0 -3 6 -15 6 -30 0 -15 -6 -27 -6 -30 0 -3 6 -15 6 -30 0 -15 -6
-27 -6 -30 0 -3 6 -15 6 -30 0 -14 -5 -27 -5 -30 0 -3 5 -18 5 -35 0 -17 -5
-30 -6 -30 -2 0 4 -289 6 -642 4 -354 -1 -649 -2 -655 -2 -17 0 -40 0 -55 0
-7 0 -34 0 -60 1 -27 1 -51 0 -54 -4 -3 -3 -17 -2 -30 3 -14 6 -26 6 -29 -1
-4 -5 -13 -6 -22 0 -9 5 -29 5 -45 1 -15 -5 -30 -5 -33 0 -3 5 -16 5 -30 0
-15 -6 -27 -6 -30 0 -3 5 -15 6 -28 1 -12 -5 -32 -5 -44 0 -13 5 -25 4 -28 -1
-3 -6 -15 -6 -30 0 -15 6 -27 6 -30 -1 -4 -5 -13 -6 -22 0 -9 5 -29 5 -45 1
-15 -5 -30 -5 -33 0 -3 5 -16 5 -30 0 -15 -6 -27 -6 -30 0 -3 5 -15 6 -28 1
-12 -5 -32 -5 -44 0 -13 5 -25 4 -28 -1 -3 -6 -15 -6 -30 0 -15 6 -27 6 -30
-1 -4 -5 -13 -6 -22 0 -9 5 -29 5 -45 1 -15 -5 -30 -5 -33 0 -3 5 -16 5 -30 0
-15 -6 -27 -6 -30 0 -3 6 -15 6 -29 0 -13 -5 -26 -6 -29 -4 -7 8 -176 9 -183
1 -4 -3 -14 -2 -23 3 -10 5 -23 5 -30 1 -26 -16 -51 0 -52 33 0 17 -3 49 -6
71 -2 22 -5 75 -6 117 -1 43 -4 78 -7 78 -3 0 -5 45 -5 100 0 55 -4 100 -8
100 -5 0 -5 5 -1 12 10 17 11 58 2 64 -5 3 -6 10 -2 15 9 14 10 89 2 89 -4 0
-3 14 2 30 5 17 5 30 0 30 -5 0 -5 13 0 30 5 17 5 30 0 30 -5 0 -5 13 0 30 5
17 5 30 0 30 -5 0 -5 13 0 30 5 17 5 30 0 30 -5 0 -5 13 0 30 5 17 5 30 0 30
-5 0 -5 13 0 30 5 17 5 30 0 30 -5 0 -5 13 0 30 5 17 5 30 0 30 -5 0 -5 13 0
30 5 17 5 30 0 30 -5 0 -5 13 0 30 5 17 5 30 1 30 -4 0 -6 14 -3 30 l4 30
-642 0 -642 0 5 -567z m1627 -1993 c9 5 19 5 26 -1 8 -7 14 -6 19 1 4 7 12 7
24 0 10 -5 21 -6 25 -3 9 9 67 9 73 0 2 -4 13 -3 23 3 13 7 21 7 25 0 4 -7 12
-7 25 0 13 7 21 7 26 -1 4 -7 9 -8 17 0 6 6 16 7 28 1 11 -7 20 -7 24 0 4 6
15 6 30 0 16 -6 25 -6 25 0 0 6 9 6 25 0 16 -6 25 -6 25 0 0 6 9 6 25 0 16 -6
25 -6 25 0 0 6 10 6 26 0 14 -6 23 -7 21 -2 -6 8 101 8 109 -1 4 -4 15 -2 25
3 12 7 20 7 24 0 4 -7 12 -7 25 0 12 6 21 7 25 0 3 -5 12 -7 19 -4 23 9 96 10
96 1 0 -4 8 -3 19 2 10 6 21 7 25 4 10 -10 46 -11 52 -1 3 4 14 3 25 -2 12 -7
19 -7 19 -1 0 7 8 7 23 2 12 -5 31 -5 42 -1 11 4 25 3 32 -2 7 -5 14 -5 18 2
4 7 12 7 26 0 12 -7 19 -7 19 -1 0 7 8 7 23 2 12 -5 31 -5 42 -1 11 4 25 3 32
-2 7 -5 14 -5 18 2 4 7 12 7 26 0 12 -7 19 -7 19 -1 0 7 8 7 23 2 12 -5 31 -5
42 -1 11 4 25 3 32 -2 7 -5 14 -5 18 2 4 7 12 7 26 0 12 -7 19 -7 19 -1 0 7 8
7 23 2 12 -5 31 -5 42 -1 11 4 25 3 32 -2 7 -5 14 -5 18 2 4 7 12 7 26 0 12
-7 19 -7 19 -1 0 7 8 7 23 2 12 -5 31 -5 42 -1 11 4 25 3 32 -2 7 -5 14 -5 18
2 4 7 12 7 26 0 12 -7 19 -7 19 -1 0 7 8 7 23 2 12 -5 31 -5 42 -1 11 4 25 3
32 -2 7 -5 14 -5 18 2 4 7 12 7 26 0 12 -7 19 -7 19 -1 0 7 8 7 23 2 12 -5 31
-5 42 -1 11 4 25 3 32 -2 7 -5 14 -5 18 2 4 7 12 7 26 0 12 -7 19 -7 19 -1 0
7 8 7 23 2 12 -5 31 -5 42 -1 11 4 25 3 32 -2 7 -5 14 -5 18 2 4 7 12 7 26 0
12 -7 19 -7 19 -1 0 7 8 7 23 2 12 -5 31 -5 42 -1 11 4 25 3 32 -2 7 -5 14 -5
18 2 4 7 12 7 26 0 12 -7 19 -7 19 -1 0 7 8 7 23 2 12 -5 31 -5 42 -1 11 4 25
3 32 -2 7 -5 14 -5 18 2 4 7 12 7 26 0 12 -7 19 -7 19 -1 0 7 8 7 23 2 12 -5
31 -5 42 -1 11 4 25 3 32 -2 7 -5 14 -5 18 2 4 7 12 7 26 0 12 -7 19 -7 19 -1
0 7 8 7 23 2 12 -5 31 -5 42 -1 11 4 25 3 32 -2 7 -5 14 -5 18 2 4 7 12 7 26
0 12 -7 19 -7 19 -1 0 7 8 7 23 2 12 -5 31 -5 42 -1 11 4 25 3 32 -2 7 -5 14
-5 18 2 4 7 12 7 26 0 12 -7 19 -7 19 -1 0 7 8 7 23 2 12 -5 31 -5 42 -1 11 4
25 3 32 -2 7 -5 14 -5 18 2 4 7 12 7 26 0 12 -7 19 -7 19 -1 0 7 8 7 23 2 12
-5 31 -5 42 -1 11 4 25 3 32 -2 7 -5 14 -5 18 2 4 7 12 7 26 0 12 -7 19 -7 19
-1 0 7 8 7 24 1 13 -5 26 -7 29 -4 9 9 62 11 79 2 10 -5 19 -4 23 2 4 7 12 7
25 0 13 -7 21 -7 25 0 4 7 13 7 26 0 12 -7 19 -7 19 -1 0 7 9 7 25 1 16 -6 25
-6 25 0 0 6 9 6 25 0 16 -6 25 -6 25 0 0 6 9 6 25 0 16 -6 25 -6 25 0 0 6 9 6
25 0 14 -5 25 -6 25 -2 0 4 11 7 25 7 14 0 25 -3 25 -7 0 -4 11 -3 25 2 16 6
25 6 25 0 0 -6 9 -6 25 0 16 6 25 6 25 0 0 -6 9 -6 25 0 16 6 25 6 25 0 0 -6
9 -6 25 0 17 6 25 6 25 -1 0 -6 6 -7 17 0 10 5 26 5 40 0 14 -5 23 -5 23 1 0
6 9 6 25 0 16 -6 25 -6 25 0 0 6 9 6 25 0 16 -6 25 -6 25 0 0 6 9 6 25 0 14
-5 25 -6 25 -2 0 4 11 7 25 7 14 0 25 -3 25 -7 0 -4 11 -3 25 2 16 6 25 6 25
0 0 -6 9 -6 25 0 16 6 25 6 25 0 0 -6 9 -6 25 0 16 6 25 6 25 0 0 -6 9 -6 25
0 17 6 25 6 25 -1 0 -6 6 -7 17 0 10 5 26 5 40 0 14 -5 23 -5 23 1 0 6 9 6 25
0 16 -6 25 -6 25 0 0 6 9 6 25 0 16 -6 25 -6 25 0 0 6 9 6 25 0 14 -5 25 -6
25 -2 0 4 11 7 25 7 14 0 25 -3 25 -7 0 -4 11 -3 25 2 16 6 25 6 25 0 0 -6 9
-6 25 0 16 6 25 6 25 0 0 -6 9 -6 25 0 16 6 25 6 25 0 0 -6 9 -6 25 0 17 6 25
6 25 -1 0 -6 6 -7 17 0 10 5 26 5 40 0 14 -5 23 -5 23 1 0 6 9 6 25 0 16 -6
25 -6 25 0 0 6 9 6 25 0 16 -6 25 -6 25 0 0 6 9 6 25 0 14 -5 25 -6 25 -2 0 4
11 7 25 7 14 0 25 -3 25 -7 0 -4 11 -3 25 2 16 6 25 6 25 0 0 -6 9 -6 25 0 16
6 25 6 25 0 0 -6 9 -6 25 0 16 6 25 6 25 0 0 -6 9 -6 25 0 17 6 25 6 25 -1 0
-6 6 -7 17 0 10 5 26 5 40 0 14 -5 23 -5 23 1 0 6 9 6 25 0 16 -6 25 -6 25 0
0 6 9 6 25 0 14 -5 25 -6 25 -1 0 5 9 7 20 4 21 -6 25 -15 13 -27 -4 -3 -8
-13 -9 -22 -4 -24 -105 -288 -115 -298 -5 -6 -9 -15 -9 -22 0 -7 -15 -45 -34
-86 -18 -40 -40 -88 -47 -105 -8 -18 -17 -33 -21 -33 -5 0 -7 -3 -6 -7 3 -8
-112 -244 -123 -253 -3 -3 -23 -36 -44 -74 -20 -39 -44 -76 -51 -84 -8 -7 -12
-17 -9 -22 3 -5 2 -10 -2 -12 -11 -4 -83 -116 -83 -128 0 -5 -3 -10 -7 -10 -5
0 -21 -22 -37 -49 -16 -27 -36 -50 -45 -50 -9 0 -39 0 -68 -1 -28 -1 -57 1
-62 5 -6 3 -11 2 -11 -4 0 -6 -11 -6 -29 -1 -15 4 -34 4 -41 0 -7 -5 -20 -6
-28 -2 -8 3 -40 5 -71 4 -135 -3 -152 -3 -161 3 -6 3 -10 2 -10 -3 0 -6 -14
-7 -35 -2 -19 4 -37 4 -40 -1 -3 -4 -16 -4 -28 0 -12 5 -32 5 -44 0 -12 -4
-25 -4 -27 0 -3 5 -20 5 -38 2 -18 -4 -50 -4 -70 0 -21 3 -38 3 -38 -1 0 -4
-16 -4 -35 0 -19 4 -37 4 -40 -1 -3 -4 -16 -4 -28 0 -12 5 -32 5 -44 0 -12 -4
-25 -4 -27 0 -3 5 -20 5 -38 2 -18 -4 -50 -4 -70 0 -21 3 -38 3 -38 -1 0 -4
-16 -4 -35 0 -19 4 -37 4 -40 -1 -3 -4 -16 -4 -28 0 -12 5 -32 5 -44 0 -12 -4
-25 -4 -27 0 -3 5 -20 5 -38 2 -18 -4 -50 -4 -70 0 -21 3 -38 3 -38 -1 0 -4
-16 -4 -35 0 -19 4 -37 4 -40 -1 -3 -4 -16 -5 -28 0 -12 5 -31 5 -42 1 -19 -6
-85 -3 -93 5 -2 2 -15 0 -28 -5 -13 -5 -26 -6 -29 0 -3 5 -18 5 -33 1 -15 -5
-36 -5 -47 -1 -11 4 -30 4 -41 -1 -12 -4 -25 -5 -28 -2 -8 8 -76 9 -76 1 0 -4
-13 -3 -30 2 -17 5 -32 5 -35 0 -3 -5 -16 -6 -28 -1 -12 5 -31 5 -42 1 -11 -4
-24 -5 -29 -2 -14 8 -76 8 -76 0 0 -4 -13 -3 -30 2 -17 5 -32 5 -35 0 -3 -5
-16 -6 -28 -1 -12 5 -31 5 -42 1 -11 -4 -24 -5 -29 -2 -14 8 -76 8 -76 0 0 -4
-13 -3 -30 2 -17 5 -32 5 -35 0 -3 -5 -16 -6 -28 -1 -12 5 -31 5 -42 1 -11 -4
-24 -5 -29 -2 -14 8 -76 8 -76 0 0 -4 -13 -3 -30 2 -17 5 -32 5 -35 0 -3 -5
-16 -6 -28 -1 -12 5 -31 5 -42 1 -11 -4 -24 -5 -29 -2 -13 7 -76 8 -76 1 0 -4
-16 -3 -35 1 -19 4 -35 4 -35 0 0 -4 -16 -4 -35 0 -19 4 -37 4 -40 -1 -3 -4
-16 -4 -28 0 -12 5 -34 5 -49 0 -16 -4 -28 -4 -28 0 0 5 -15 5 -32 2 -18 -4
-48 -4 -66 0 -17 4 -34 3 -37 -2 -3 -4 -16 -4 -28 0 -12 5 -34 5 -49 0 -16 -4
-28 -4 -28 0 0 5 -15 5 -32 2 -18 -4 -48 -4 -66 0 -17 4 -34 3 -37 -2 -3 -4
-16 -4 -28 0 -12 5 -34 5 -49 0 -16 -4 -28 -4 -28 0 0 5 -15 5 -32 2 -18 -4
-48 -4 -66 0 -17 4 -35 3 -38 -2 -3 -5 -10 -7 -15 -3 -13 8 -97 9 -105 2 -3
-4 -16 -3 -28 2 -13 4 -29 4 -36 0 -8 -5 -21 -5 -29 -1 -8 5 -27 5 -43 1 -15
-5 -28 -6 -28 -2 0 4 -19 6 -42 5 -24 -2 -59 -3 -78 -3 -37 1 -62 0 -82 0 -7
-1 -33 0 -58 1 -25 2 -50 0 -55 -3 -6 -3 -19 -2 -30 2 -11 4 -30 4 -42 -1 -12
-5 -25 -4 -28 0 -3 5 -13 7 -24 4 -13 -3 -26 6 -44 29 -31 42 -166 258 -198
318 -13 25 -26 47 -29 50 -3 3 -21 37 -40 75 -19 39 -43 82 -53 98 -10 15 -16
27 -14 27 3 0 -17 45 -44 100 -27 55 -49 102 -49 105 0 2 -11 28 -24 57 -14
29 -37 82 -52 118 -14 36 -31 76 -37 90 -5 14 -11 32 -13 40 -2 8 -8 24 -13
37 -6 13 -15 33 -20 46 -5 12 -14 35 -20 51 -10 23 -9 31 1 37 7 4 17 4 23 -1
6 -5 17 -5 25 0z m1822 -2564 c5 4 50 5 108 3 8 0 40 0 70 0 30 0 62 0 70 0 8
0 26 0 40 1 21 1 87 1 155 1 8 0 31 0 50 0 19 0 42 0 50 0 8 0 40 0 70 0 30 0
62 0 70 0 8 0 31 0 50 0 19 0 42 0 50 0 8 0 40 0 70 0 30 0 62 0 70 0 8 0 31
0 50 0 19 0 42 0 50 0 8 0 40 0 70 0 30 0 62 0 70 0 8 0 31 0 50 0 19 0 42 0
50 0 8 0 40 0 70 0 30 0 62 0 70 0 8 0 31 0 50 0 19 0 42 0 50 0 8 0 40 0 70
0 30 0 62 0 70 0 17 0 77 0 103 0 64 0 139 0 152 0 8 -1 33 -1 55 0 22 0 47 0
55 0 8 0 38 0 65 0 28 0 57 0 65 0 8 -1 32 -1 53 -1 l38 0 -83 -81 c-144 -141
-335 -321 -463 -434 -43 -38 -90 -81 -104 -94 -14 -13 -55 -49 -90 -80 -35
-31 -69 -61 -75 -66 -6 -6 -81 -71 -166 -144 -85 -73 -168 -144 -183 -158 -34
-29 -48 -26 -109 30 -25 23 -64 56 -85 74 -21 18 -52 45 -70 60 -17 15 -48 42
-70 60 -21 18 -52 45 -69 60 -30 27 -137 122 -180 160 -36 31 -165 147 -193
173 -213 196 -451 426 -451 435 0 7 124 10 141 3 9 -4 19 -5 21 -2z m1050
-2763 c2 -5 30 -30 63 -58 33 -27 67 -57 76 -67 9 -10 20 -18 24 -18 4 0 15
-8 24 -18 9 -9 50 -46 91 -82 41 -36 80 -69 86 -75 6 -5 44 -39 84 -75 157
-139 153 -134 269 -240 95 -86 169 -156 326 -309 l130 -126 -60 -5 c-33 -3
-71 -3 -85 1 -14 3 -36 3 -50 -1 -14 -3 -44 -3 -67 0 -23 4 -47 4 -52 0 -6 -3
-38 -3 -71 0 -34 3 -62 4 -64 2 -2 -2 -84 -3 -182 -2 -232 1 -286 0 -296 -6
-4 -3 -8 -1 -8 4 0 4 -22 6 -50 2 -27 -3 -54 -4 -60 0 -5 3 -37 3 -70 0 -33
-3 -60 -3 -60 0 0 4 -22 4 -50 0 -27 -3 -54 -4 -60 0 -5 3 -37 3 -70 0 -33 -3
-60 -3 -60 0 0 4 -22 4 -50 0 -27 -3 -54 -4 -60 0 -5 3 -37 3 -70 0 -33 -3
-60 -3 -60 0 0 4 -22 4 -50 0 -27 -3 -54 -4 -60 0 -5 3 -37 3 -70 0 -34 -3
-63 -3 -65 0 -2 4 -23 4 -47 1 -24 -3 -69 -4 -101 -1 -32 3 -62 3 -67 0 -6 -4
-33 -3 -60 0 -28 4 -50 2 -50 -2 0 -5 -4 -7 -9 -4 -5 4 -41 7 -80 7 -65 1 -70
3 -59 18 23 28 324 317 447 427 30 27 66 60 81 74 15 14 55 50 90 80 71 61
150 132 191 170 15 14 51 45 80 70 29 25 104 89 167 143 105 90 135 109 144
90z m-2202 -2353 c22 4 40 5 40 1 0 -8 68 -6 76 2 3 3 16 2 28 -3 13 -4 29 -4
36 0 8 5 21 5 29 1 8 -5 26 -5 40 -1 14 4 35 4 46 0 11 -4 32 -4 48 1 15 4 27
4 27 0 0 -5 15 -5 33 -2 17 4 47 4 65 0 17 -4 34 -3 37 2 3 4 16 4 28 0 12 -5
34 -5 49 0 16 4 28 4 28 0 0 -5 15 -5 33 -2 17 4 47 4 65 0 17 -4 34 -3 37 2
3 4 16 4 28 0 12 -5 34 -5 49 0 16 4 28 4 28 0 0 -5 15 -5 33 -2 17 4 47 4 65
0 17 -4 34 -3 37 2 3 4 16 4 28 0 12 -5 34 -5 49 0 16 4 28 4 28 0 0 -5 15 -5
33 -2 17 4 47 4 65 0 17 -4 34 -3 37 2 3 4 16 4 28 0 12 -5 34 -5 49 0 16 4
28 4 28 0 0 -5 15 -5 33 -2 17 4 47 4 65 0 17 -4 34 -3 37 2 3 4 16 4 28 0 12
-5 34 -5 49 0 16 4 28 4 28 0 0 -5 15 -5 33 -2 17 4 47 4 65 0 17 -4 34 -3 37
2 3 4 16 4 28 0 12 -5 34 -5 49 0 16 4 28 4 28 0 0 -5 15 -5 33 -2 17 4 47 4
65 0 17 -4 34 -3 37 2 3 4 16 4 28 0 12 -5 34 -5 49 0 16 4 28 4 28 0 0 -5 15
-5 33 -2 17 4 47 4 65 0 17 -4 34 -3 37 2 3 4 16 4 28 0 12 -5 34 -5 49 0 16
4 28 4 28 0 0 -5 15 -5 33 -2 17 4 47 4 65 0 17 -4 34 -3 37 2 3 4 16 4 28 0
12 -5 34 -5 49 0 16 4 28 4 28 0 0 -5 15 -5 33 -2 17 4 47 4 65 0 17 -4 34 -3
37 2 3 4 16 4 28 0 12 -5 34 -5 49 0 16 4 28 4 28 0 0 -5 15 -5 33 -2 17 4 47
4 65 0 17 -4 34 -3 37 2 3 4 16 4 28 0 12 -5 34 -5 49 0 16 4 28 4 28 0 0 -5
15 -5 33 -2 17 4 47 4 65 0 17 -4 34 -3 37 2 3 4 16 4 28 0 12 -5 34 -5 49 0
16 4 28 4 28 0 0 -5 15 -5 33 -2 17 4 47 4 65 0 17 -4 34 -3 37 2 3 4 16 4 28
0 12 -5 34 -5 49 0 16 4 28 4 28 -1 0 -4 15 -5 33 -1 17 4 47 4 65 0 18 -3 35
-3 37 2 3 4 16 4 28 0 12 -5 34 -5 49 0 16 4 28 4 28 0 0 -5 15 -5 33 -2 17 4
47 4 65 0 17 -4 34 -3 37 2 3 4 16 4 28 0 12 -5 34 -5 49 0 16 4 28 4 28 0 0
-5 15 -5 33 -2 17 4 47 4 65 0 17 -4 34 -3 37 2 3 4 16 4 28 0 12 -5 34 -5 49
0 16 4 28 4 28 0 0 -5 15 -5 33 -2 17 4 47 4 65 0 17 -4 34 -3 37 2 3 4 13 5
21 2 9 -3 32 -6 52 -7 35 -1 40 -6 99 -96 35 -52 67 -100 73 -107 5 -7 10 -16
10 -20 0 -5 11 -24 23 -43 24 -35 68 -112 117 -205 15 -27 32 -59 38 -70 20
-36 132 -278 137 -295 0 -3 8 -21 17 -40 20 -41 99 -231 102 -245 2 -5 7 -19
11 -30 41 -102 46 -118 33 -126 -7 -4 -17 -4 -23 1 -6 5 -17 5 -25 0 -9 -5
-19 -5 -26 1 -8 7 -14 6 -19 -1 -4 -7 -12 -7 -25 0 -13 7 -21 7 -25 0 -4 -7
-12 -7 -25 0 -13 7 -21 7 -25 0 -4 -7 -12 -7 -25 0 -12 6 -21 7 -25 0 -4 -6
-15 -6 -30 0 -16 6 -25 6 -25 0 0 -6 -10 -6 -26 0 -14 6 -23 7 -21 2 3 -4 -41
-7 -98 -7 -57 0 -101 3 -98 7 2 5 -7 4 -21 -2 -16 -6 -26 -6 -26 0 0 6 -9 6
-25 0 -16 -6 -25 -6 -25 0 0 6 -9 6 -25 0 -16 -6 -25 -6 -25 0 0 6 -9 6 -25 0
-15 -6 -26 -6 -30 0 -4 7 -13 6 -25 0 -13 -7 -21 -7 -25 0 -4 6 -11 8 -16 4
-14 -8 -197 -9 -205 -1 -4 3 -15 2 -25 -3 -12 -7 -20 -7 -24 0 -4 7 -12 7 -25
0 -13 -7 -21 -7 -26 1 -4 7 -9 8 -17 0 -6 -6 -16 -7 -28 -1 -11 7 -20 7 -24 0
-4 -6 -15 -6 -30 0 -16 6 -25 6 -25 0 0 -6 -9 -6 -25 0 -16 6 -25 6 -25 0 0
-6 -9 -6 -25 0 -16 6 -25 6 -25 0 0 -6 -10 -6 -26 0 -14 6 -23 7 -21 2 6 -8
-101 -8 -109 1 -4 4 -15 2 -25 -3 -12 -7 -20 -7 -24 0 -4 7 -12 7 -25 0 -13
-7 -21 -7 -26 1 -4 7 -9 8 -17 0 -6 -6 -16 -7 -28 -1 -11 7 -20 7 -24 0 -4 -6
-15 -6 -30 0 -16 6 -25 6 -25 0 0 -6 -9 -6 -25 0 -16 6 -25 6 -25 0 0 -6 -9
-6 -25 0 -16 6 -25 6 -25 0 0 -6 -10 -6 -26 0 -14 6 -23 7 -21 2 6 -8 -101 -8
-109 1 -4 4 -15 2 -25 -3 -12 -7 -20 -7 -24 0 -4 7 -12 7 -25 0 -12 -6 -21 -7
-25 0 -3 5 -12 7 -19 4 -23 -9 -96 -10 -96 -1 0 4 -8 3 -19 -2 -10 -6 -21 -7
-25 -4 -10 10 -46 11 -52 1 -3 -4 -14 -3 -25 2 -12 7 -19 7 -19 1 0 -7 -8 -7
-22 -2 -13 5 -32 5 -43 1 -11 -4 -25 -3 -32 2 -7 5 -14 5 -18 -2 -4 -7 -12 -7
-26 0 -12 7 -19 7 -19 1 0 -7 -8 -7 -22 -2 -13 5 -32 5 -43 1 -11 -4 -25 -3
-32 2 -7 5 -14 5 -18 -2 -4 -7 -12 -7 -26 0 -12 7 -19 7 -19 1 0 -7 -8 -7 -22
-2 -13 5 -32 5 -43 1 -11 -4 -25 -3 -32 2 -7 5 -14 5 -18 -2 -4 -7 -12 -7 -26
0 -12 7 -19 7 -19 1 0 -7 -8 -7 -22 -2 -13 5 -32 5 -43 1 -11 -4 -25 -3 -32 2
-7 5 -14 5 -18 -2 -4 -7 -12 -7 -26 0 -12 7 -19 7 -19 1 0 -7 -8 -7 -22 -2
-13 5 -32 5 -43 1 -11 -4 -25 -3 -32 2 -7 5 -14 5 -18 -2 -4 -7 -12 -7 -26 0
-12 7 -19 7 -19 1 0 -7 -8 -7 -22 -2 -13 5 -32 5 -43 1 -11 -4 -25 -3 -32 2
-7 5 -14 5 -18 -2 -4 -7 -12 -7 -26 0 -12 7 -19 7 -19 1 0 -7 -8 -7 -22 -2
-13 5 -32 5 -43 1 -11 -4 -25 -3 -32 2 -7 5 -14 5 -18 -2 -4 -7 -12 -7 -26 0
-12 7 -19 7 -19 1 0 -7 -8 -7 -24 -1 -13 5 -26 6 -29 4 -8 -9 -81 -9 -94 -1
-6 4 -14 3 -18 -2 -4 -7 -15 -7 -30 -1 -16 6 -25 6 -25 0 0 -6 -9 -6 -25 0
-16 6 -25 6 -25 0 0 -6 -9 -6 -25 0 -16 6 -25 6 -25 0 0 -6 -9 -6 -25 0 -14 5
-25 6 -25 2 0 -9 -65 -6 -80 3 -6 3 -10 2 -10 -4 0 -7 -8 -7 -25 -1 -16 6 -25
6 -25 0 0 -6 -9 -6 -25 0 -16 6 -25 6 -25 0 0 -6 -9 -6 -25 0 -14 5 -25 6 -25
2 0 -4 -11 -7 -25 -7 -14 0 -25 3 -25 7 0 4 -11 3 -25 -2 -16 -6 -25 -6 -25 0
0 6 -9 6 -25 0 -16 -6 -25 -6 -25 0 0 6 -9 6 -25 0 -16 -6 -25 -6 -25 0 0 6
-9 6 -25 0 -17 -6 -25 -6 -25 1 0 6 -6 7 -17 0 -10 -5 -26 -5 -40 0 -14 5 -23
5 -23 -1 0 -6 -9 -6 -25 0 -16 6 -25 6 -25 0 0 -6 -9 -6 -25 0 -16 6 -25 6
-25 0 0 -6 -9 -6 -25 0 -14 5 -25 6 -25 2 0 -4 -11 -7 -25 -7 -14 0 -25 3 -25
7 0 4 -11 3 -25 -2 -16 -6 -25 -6 -25 0 0 6 -9 6 -25 0 -16 -6 -25 -6 -25 0 0
6 -9 6 -25 0 -16 -6 -25 -6 -25 0 0 6 -9 6 -25 0 -17 -6 -25 -6 -25 1 0 6 -6
7 -17 0 -10 -5 -26 -5 -40 0 -14 5 -23 5 -23 -1 0 -6 -9 -6 -25 0 -16 6 -25 6
-25 0 0 -6 -9 -6 -25 0 -16 6 -25 6 -25 0 0 -6 -9 -6 -25 0 -14 5 -25 6 -25 2
0 -4 -11 -7 -25 -7 -14 0 -25 3 -25 7 0 4 -11 3 -25 -2 -16 -6 -25 -6 -25 0 0
6 -9 6 -25 0 -16 -6 -25 -6 -25 0 0 6 -9 6 -25 0 -16 -6 -25 -6 -25 0 0 6 -9
6 -25 0 -17 -6 -25 -6 -25 1 0 6 -6 7 -17 0 -10 -5 -26 -5 -40 0 -14 5 -23 5
-23 -1 0 -6 -9 -6 -25 0 -16 6 -25 6 -25 0 0 -6 -9 -6 -25 0 -16 6 -25 6 -25
0 0 -6 -9 -6 -25 0 -14 5 -25 6 -25 2 0 -4 -11 -7 -25 -7 -14 0 -25 3 -25 7 0
4 -11 3 -25 -2 -16 -6 -25 -6 -25 0 0 6 -9 6 -25 0 -16 -6 -25 -6 -25 0 0 6
-9 6 -25 0 -16 -6 -25 -6 -25 0 0 6 -9 6 -25 0 -14 -5 -25 -6 -25 -2 0 4 -12
8 -27 7 -20 0 -27 5 -25 15 6 32 87 245 95 251 5 3 8 10 8 15 -1 5 4 23 10 39
7 17 13 32 14 35 6 16 39 90 53 120 9 19 17 37 17 40 1 11 166 334 183 358 11
15 25 42 33 60 8 17 17 32 20 32 3 0 14 18 24 40 10 22 22 40 27 40 4 0 8 6 9
13 0 6 30 57 67 112 47 71 74 101 92 105 14 4 26 3 28 0 1 -4 21 -4 42 0z"/>
</g>
</svg>
